<mxfile host="app.diagrams.net" modified="2024-01-24T03:17:18.733Z" agent="Mozilla/5.0 (X11; Linux x86_64) AppleWebKit/537.36 (KHTML, like Gecko) Chrome/120.0.0.0 Safari/537.36" etag="ddAsXYmhsbtgXmVWmxMd" version="22.1.21" type="github">
  <diagram name="Page-1" id="9nLId5k3Yff63Bz5OH_D">
    <mxGraphModel dx="-207" dy="1472" grid="1" gridSize="10" guides="1" tooltips="1" connect="1" arrows="1" fold="1" page="1" pageScale="1" pageWidth="850" pageHeight="1100" math="0" shadow="0">
      <root>
        <mxCell id="0" />
        <mxCell id="1" parent="0" />
        <mxCell id="TPjln3N7VkVI3ZfMpHSB-58" value="&lt;b style=&quot;font-size: 10px;&quot;&gt;34&lt;br style=&quot;font-size: 10px;&quot;&gt;&lt;/b&gt;" style="ellipse;whiteSpace=wrap;html=1;aspect=fixed;fontSize=10;fillColor=#CCCCCC;" parent="1" vertex="1">
          <mxGeometry x="1053.409689119171" y="-669.9939698492462" width="25.897343862167983" height="25.897343862167983" as="geometry" />
        </mxCell>
        <mxCell id="TPjln3N7VkVI3ZfMpHSB-59" value="&lt;b&gt;&lt;font style=&quot;font-size: 10px;&quot;&gt;123456&lt;/font&gt;&lt;br&gt;&lt;/b&gt;" style="ellipse;whiteSpace=wrap;html=1;aspect=fixed;fontSize=20;fillColor=#CCCCCC;" parent="1" vertex="1">
          <mxGeometry x="1053.4109844559584" y="-850" width="35" height="35" as="geometry" />
        </mxCell>
        <mxCell id="TPjln3N7VkVI3ZfMpHSB-60" value="1" style="ellipse;whiteSpace=wrap;html=1;aspect=fixed;fontSize=12;" parent="1" vertex="1">
          <mxGeometry x="920" y="-600.0002512562814" width="21.581119885139984" height="21.581119885139984" as="geometry" />
        </mxCell>
        <mxCell id="TPjln3N7VkVI3ZfMpHSB-61" value="3" style="ellipse;whiteSpace=wrap;html=1;aspect=fixed;fontSize=12;" parent="1" vertex="1">
          <mxGeometry x="1029.9998445595857" y="-600.0002512562814" width="21.581119885139984" height="21.581119885139984" as="geometry" />
        </mxCell>
        <mxCell id="TPjln3N7VkVI3ZfMpHSB-62" value="4" style="ellipse;whiteSpace=wrap;html=1;aspect=fixed;fontSize=12;" parent="1" vertex="1">
          <mxGeometry x="1089.9995509499136" y="-600.0002512562814" width="21.581119885139984" height="21.581119885139984" as="geometry" />
        </mxCell>
        <mxCell id="TPjln3N7VkVI3ZfMpHSB-63" value="5" style="ellipse;whiteSpace=wrap;html=1;aspect=fixed;fontSize=12;" parent="1" vertex="1">
          <mxGeometry x="1088.4144645941278" y="-729.7502512562814" width="21.581119885139984" height="21.581119885139984" as="geometry" />
        </mxCell>
        <mxCell id="TPjln3N7VkVI3ZfMpHSB-65" value="&lt;b style=&quot;font-size: 10px;&quot;&gt;12&lt;br style=&quot;font-size: 10px;&quot;&gt;&lt;/b&gt;" style="ellipse;whiteSpace=wrap;html=1;aspect=fixed;fontSize=10;fillColor=#CCCCCC;" parent="1" vertex="1">
          <mxGeometry x="954.1028497409327" y="-669.9984422110554" width="25.897343862167983" height="25.897343862167983" as="geometry" />
        </mxCell>
        <mxCell id="TPjln3N7VkVI3ZfMpHSB-66" value="2" style="ellipse;whiteSpace=wrap;html=1;aspect=fixed;fontSize=12;" parent="1" vertex="1">
          <mxGeometry x="992.16" y="-600.0002512562814" width="21.581119885139984" height="21.581119885139984" as="geometry" />
        </mxCell>
        <mxCell id="TPjln3N7VkVI3ZfMpHSB-68" value="6" style="ellipse;whiteSpace=wrap;html=1;aspect=fixed;fontSize=12;" parent="1" vertex="1">
          <mxGeometry x="1131.5844645941277" y="-793.0402512562814" width="21.581119885139984" height="21.581119885139984" as="geometry" />
        </mxCell>
        <mxCell id="TPjln3N7VkVI3ZfMpHSB-69" value="&lt;b&gt;&lt;font style=&quot;font-size: 10px;&quot;&gt;123456&lt;/font&gt;&lt;br&gt;&lt;/b&gt;" style="ellipse;whiteSpace=wrap;html=1;aspect=fixed;fontSize=20;fillColor=#CCCCCC;" parent="1" vertex="1">
          <mxGeometry x="1013.7409844559585" y="-793.04" width="35" height="35" as="geometry" />
        </mxCell>
        <mxCell id="TPjln3N7VkVI3ZfMpHSB-70" value="&lt;b&gt;&lt;font style=&quot;font-size: 10px;&quot;&gt;123456&lt;/font&gt;&lt;br&gt;&lt;/b&gt;" style="ellipse;whiteSpace=wrap;html=1;aspect=fixed;fontSize=20;fillColor=#CCCCCC;" parent="1" vertex="1">
          <mxGeometry x="985.4509844559585" y="-736.46" width="35" height="35" as="geometry" />
        </mxCell>
        <mxCell id="TPjln3N7VkVI3ZfMpHSB-71" value="" style="endArrow=none;html=1;rounded=0;entryX=1;entryY=1;entryDx=0;entryDy=0;exitX=0.5;exitY=0;exitDx=0;exitDy=0;" parent="1" source="TPjln3N7VkVI3ZfMpHSB-66" target="TPjln3N7VkVI3ZfMpHSB-65" edge="1">
          <mxGeometry width="50" height="50" relative="1" as="geometry">
            <mxPoint x="1170" y="-690" as="sourcePoint" />
            <mxPoint x="1220" y="-740" as="targetPoint" />
          </mxGeometry>
        </mxCell>
        <mxCell id="TPjln3N7VkVI3ZfMpHSB-72" value="" style="endArrow=none;html=1;rounded=0;exitX=0;exitY=1;exitDx=0;exitDy=0;entryX=0.5;entryY=0;entryDx=0;entryDy=0;" parent="1" source="TPjln3N7VkVI3ZfMpHSB-65" target="TPjln3N7VkVI3ZfMpHSB-60" edge="1">
          <mxGeometry width="50" height="50" relative="1" as="geometry">
            <mxPoint x="1100" y="-660" as="sourcePoint" />
            <mxPoint x="1150" y="-710" as="targetPoint" />
          </mxGeometry>
        </mxCell>
        <mxCell id="TPjln3N7VkVI3ZfMpHSB-73" value="" style="endArrow=none;html=1;rounded=0;exitX=1;exitY=1;exitDx=0;exitDy=0;entryX=0;entryY=0;entryDx=0;entryDy=0;" parent="1" source="TPjln3N7VkVI3ZfMpHSB-70" target="TPjln3N7VkVI3ZfMpHSB-58" edge="1">
          <mxGeometry width="50" height="50" relative="1" as="geometry">
            <mxPoint x="1130" y="-680" as="sourcePoint" />
            <mxPoint x="1180" y="-730" as="targetPoint" />
          </mxGeometry>
        </mxCell>
        <mxCell id="TPjln3N7VkVI3ZfMpHSB-74" value="" style="endArrow=none;html=1;rounded=0;entryX=1;entryY=1;entryDx=0;entryDy=0;exitX=0;exitY=0;exitDx=0;exitDy=0;" parent="1" source="TPjln3N7VkVI3ZfMpHSB-63" target="TPjln3N7VkVI3ZfMpHSB-69" edge="1">
          <mxGeometry width="50" height="50" relative="1" as="geometry">
            <mxPoint x="1130" y="-680" as="sourcePoint" />
            <mxPoint x="1180" y="-730" as="targetPoint" />
          </mxGeometry>
        </mxCell>
        <mxCell id="TPjln3N7VkVI3ZfMpHSB-75" value="" style="endArrow=none;html=1;rounded=0;entryX=1;entryY=1;entryDx=0;entryDy=0;exitX=0;exitY=0;exitDx=0;exitDy=0;" parent="1" source="TPjln3N7VkVI3ZfMpHSB-68" target="TPjln3N7VkVI3ZfMpHSB-59" edge="1">
          <mxGeometry width="50" height="50" relative="1" as="geometry">
            <mxPoint x="1130" y="-680" as="sourcePoint" />
            <mxPoint x="1180" y="-730" as="targetPoint" />
          </mxGeometry>
        </mxCell>
        <mxCell id="TPjln3N7VkVI3ZfMpHSB-77" value="" style="endArrow=none;html=1;rounded=0;entryX=0;entryY=1;entryDx=0;entryDy=0;exitX=0.5;exitY=0;exitDx=0;exitDy=0;" parent="1" source="TPjln3N7VkVI3ZfMpHSB-65" target="TPjln3N7VkVI3ZfMpHSB-70" edge="1">
          <mxGeometry width="50" height="50" relative="1" as="geometry">
            <mxPoint x="1080" y="-670" as="sourcePoint" />
            <mxPoint x="1130" y="-720" as="targetPoint" />
          </mxGeometry>
        </mxCell>
        <mxCell id="TPjln3N7VkVI3ZfMpHSB-78" value="" style="endArrow=none;html=1;rounded=0;entryX=0;entryY=1;entryDx=0;entryDy=0;exitX=0.5;exitY=0;exitDx=0;exitDy=0;" parent="1" source="TPjln3N7VkVI3ZfMpHSB-70" target="TPjln3N7VkVI3ZfMpHSB-69" edge="1">
          <mxGeometry width="50" height="50" relative="1" as="geometry">
            <mxPoint x="1080" y="-670" as="sourcePoint" />
            <mxPoint x="1130" y="-720" as="targetPoint" />
          </mxGeometry>
        </mxCell>
        <mxCell id="TPjln3N7VkVI3ZfMpHSB-79" value="" style="endArrow=none;html=1;rounded=0;entryX=0;entryY=1;entryDx=0;entryDy=0;exitX=0.5;exitY=0;exitDx=0;exitDy=0;" parent="1" source="TPjln3N7VkVI3ZfMpHSB-69" target="TPjln3N7VkVI3ZfMpHSB-59" edge="1">
          <mxGeometry width="50" height="50" relative="1" as="geometry">
            <mxPoint x="1080" y="-670" as="sourcePoint" />
            <mxPoint x="1130" y="-720" as="targetPoint" />
          </mxGeometry>
        </mxCell>
        <mxCell id="VCHobz935w4u5iutOep8-5" value="" style="endArrow=none;html=1;rounded=0;entryX=0;entryY=1;entryDx=0;entryDy=0;exitX=0.5;exitY=0;exitDx=0;exitDy=0;" edge="1" parent="1" source="TPjln3N7VkVI3ZfMpHSB-61" target="TPjln3N7VkVI3ZfMpHSB-58">
          <mxGeometry width="50" height="50" relative="1" as="geometry">
            <mxPoint x="1080" y="-660" as="sourcePoint" />
            <mxPoint x="1130" y="-710" as="targetPoint" />
          </mxGeometry>
        </mxCell>
        <mxCell id="VCHobz935w4u5iutOep8-6" value="" style="endArrow=none;html=1;rounded=0;entryX=0.5;entryY=0;entryDx=0;entryDy=0;exitX=1;exitY=1;exitDx=0;exitDy=0;" edge="1" parent="1" source="TPjln3N7VkVI3ZfMpHSB-58" target="TPjln3N7VkVI3ZfMpHSB-62">
          <mxGeometry width="50" height="50" relative="1" as="geometry">
            <mxPoint x="1080" y="-660" as="sourcePoint" />
            <mxPoint x="1130" y="-710" as="targetPoint" />
          </mxGeometry>
        </mxCell>
      </root>
    </mxGraphModel>
  </diagram>
</mxfile>
